# xmcd
#
# Track frame offsets: 
#        150
#        13075
#        24555
#        36437
#        49750
#        61875
#        73410
#        84310
#        95980
#        107860
#        118707
#        130622
#        143337
#        156167
#        166537
#        179707
#        190775
#        199700
#
# Disc length: 2812 seconds
#
# Revision: 3
# Processed by: cddbd v1.5.2PL0 Copyright (c) Steve Scherf et al.
# Submitted via: ExactAudioCopy v1.0b1
#
DISCID=f90afa12
DTITLE=Junior Parker - Junior's Blues:  The Duke Recordings (Vol. 1)
DYEAR=1992
DGENRE=blues
TTITLE0=I Wanna Ramble (mono)
TTITLE1=Mother-In-Law Blues (mono)
TTITLE2=Next Time You See Me (mono)
TTITLE3=That's All Right (mono)
TTITLE4=Sitting And Thinking (mono)
TTITLE5=Sweet Home Chicago (mono)
TTITLE6=Sometimes (mono)
TTITLE7=Stand By Me (mono)
TTITLE8=Driving Wheel (mono)
TTITLE9=Seven Days (mono)
TTITLE10=In The Dark (mono)
TTITLE11=Someone Somewhere (mono)
TTITLE12=It's A Pity (mono)
TTITLE13=Yonder's Wall (mono)
TTITLE14=Strange Things Happening (stereo)
TTITLE15=The Things I Used To Do (stereo)
TTITLE16=Jivin' Woman (stereo)
TTITLE17=Cryin' For My Baby (mono)
EXTD=MCAD-10669\n\nSubmitted 6/16/97\n[Jmccoy@efn.org]
EXTT0=
EXTT1=
EXTT2=
EXTT3=
EXTT4=
EXTT5=
EXTT6=
EXTT7=
EXTT8=
EXTT9=
EXTT10=
EXTT11=
EXTT12=
EXTT13=
EXTT14=
EXTT15=
EXTT16=
EXTT17=
PLAYORDER=
